<svg xmlns="http://www.w3.org/2000/svg" viewBox="0 0 1062.20 200.00" width="1062" height="200">
  <title>YarPhoenix Watch</title>
  <svg x="0.00" y="5.00" width="225.55" height="219.70" viewBox="0 0 1037.481413 1150.727418" overflow="visible">
    <g transform="translate(-8.518587,1016.858438) scale(0.100000,-0.100000)" fill="#000000" stroke="none">
<path d="M4837 10154 c-869 -73 -1720 -370 -2442 -854 -332 -222 -669 -500&#xA;-865 -714 l-38 -41 129 -120 c71 -66 133 -121 139 -123 6 -2 33 17 60 42 90&#xA;84 123 77 250 -52 492 -502 587 -596 619 -617 21 -12 124 -69 230 -125 l192&#xA;-102 54 44 c588 467 1181 705 1895 759 818 62 1694 -219 2318 -743 50 -43 97&#xA;-78 103 -78 12 0 163 82 306 167 93 55 183 143 708 691 44 46 93 91 109 99 47&#xA;24 91 9 157 -54 l59 -56 87 85 c49 47 110 104 136 128 l48 44 -93 93 c-141&#xA;143 -364 336 -573 499 -167 129 -462 316 -690 437 -628 334 -1290 528 -2015&#xA;592 -213 18 -659 18 -883 -1z m521 -96 c18 -18 16 -143 -4 -162 -24 -25 -120&#xA;-22 -134 3 -11 21 -14 129 -4 155 8 20 123 23 142 4z m-354 -82 c11 -97 2&#xA;-108 -84 -104 l-55 3 -9 77 c-12 101 -5 110 78 106 l61 -3 9 -79z m710 71 c16&#xA;-11 18 -25 15 -90 -3 -41 -8 -79 -12 -83 -11 -11 -119 -5 -134 8 -11 8 -12 29&#xA;-8 82 4 39 8 77 10 84 6 16 106 16 129 -1z m-1086 -29 c5 -7 15 -44 21 -83 13&#xA;-85 8 -92 -70 -101 -69 -8 -76 0 -85 105 -7 68 -6 70 17 75 77 17 105 18 117&#xA;4z m1424 -4 c20 -3 39 -11 41 -18 5 -11 -6 -96 -18 -145 -6 -22 -9 -23 -67&#xA;-19 -80 6 -88 17 -75 105 11 80 21 96 56 89 14 -3 43 -8 63 -12z m-1785 -52&#xA;c6 -4 19 -41 27 -82 19 -88 15 -95 -59 -109 -60 -12 -67 -6 -85 77 -17 83 -13&#xA;95 40 109 56 14 62 15 77 5z m2135 -12 c21 -6 40 -15 43 -19 5 -10 -22 -140&#xA;-34 -159 -8 -14 -108 1 -125 18 -10 10 7 140 20 161 7 12 51 11 96 -1z m-2472&#xA;-89 c16 -32 40 -131 34 -146 -6 -16 -63 -35 -105 -35 -23 0 -28 7 -49 75 -26&#xA;84 -24 91 33 112 48 17 75 15 87 -6z m2828 -7 c20 -8 32 -20 32 -32 0 -31 -41&#xA;-142 -53 -143 -43 -4 -113 17 -120 36 -7 16 26 130 43 150 13 16 40 13 98 -11z&#xA;m-979 -79 c133 -15 367 -53 489 -78 67 -15 106 -43 117 -84 3 -15 -15 -112&#xA;-49 -251 -65 -266 -133 -551 -171 -711 -20 -84 -34 -121 -52 -139 -29 -28 -28&#xA;-28 -278 12 -381 62 -824 57 -1185 -14 -129 -25 -162 -25 -189 -2 -24 19 -27&#xA;31 -151 547 -39 165 -82 344 -96 398 -13 54 -24 111 -24 128 0 37 24 85 49 99&#xA;54 28 563 101 796 114 149 8 615 -4 744 -19z m-2171 -75 c32 -89 28 -101 -37&#xA;-123 -37 -12 -57 -14 -66 -7 -6 5 -23 41 -36 80 -26 77 -24 85 33 106 65 24&#xA;81 16 106 -56z m3486 46 c42 -18 45 -32 16 -110 -29 -76 -38 -82 -100 -61 -28&#xA;9 -54 24 -57 32 -6 15 7 67 33 128 14 33 18 37 44 31 16 -3 45 -12 64 -20z&#xA;m-3847 -118 c5 -7 22 -42 37 -77 26 -62 26 -65 9 -81 -24 -23 -97 -50 -110&#xA;-42 -15 9 -63 120 -63 144 0 13 16 26 53 43 61 29 62 29 74 13z m4170 -19 c29&#xA;-14 43 -27 43 -40 0 -33 -58 -149 -74 -149 -24 0 -105 42 -111 58 -3 8 9 46&#xA;26 83 36 78 46 82 116 48z m-3427 -38 c21 -15 33 -47 71 -192 26 -96 86 -322&#xA;134 -504 49 -181 90 -346 93 -366 5 -48 -26 -82 -98 -104 -112 -35 -389 -149&#xA;-511 -211 -226 -113 -450 -255 -647 -411 -115 -91 -132 -100 -171 -84 -16 7&#xA;-71 58 -122 114 -52 56 -211 227 -354 380 -143 153 -268 291 -277 305 -43 65&#xA;-15 108 160 245 474 372 970 640 1512 815 145 47 162 48 210 13z m2884 -42&#xA;c384 -133 753 -316 1091 -542 167 -111 371 -265 449 -338 60 -56 66 -65 66&#xA;-101 0 -34 -7 -47 -53 -96 -30 -31 -197 -210 -372 -397 -175 -187 -329 -346&#xA;-343 -353 -36 -20 -65 -8 -160 69 -326 264 -720 479 -1132 619 -99 33 -140 63&#xA;-140 103 0 12 18 87 39 167 21 80 68 260 105 400 123 466 127 478 153 504 46&#xA;46 69 43 297 -35z m-3920 -113 c20 -35 36 -73 36 -83 0 -13 -17 -28 -52 -46&#xA;-49 -26 -53 -26 -71 -9 -11 9 -33 43 -49 76 -25 49 -27 61 -16 71 17 17 90 55&#xA;104 55 7 0 28 -29 48 -64z m4808 14 l30 -25 -37 -69 c-21 -37 -43 -70 -50 -73&#xA;-16 -5 -86 29 -105 52 -11 13 -9 24 11 67 13 28 32 62 42 74 15 20 20 21 48&#xA;11 17 -7 44 -23 61 -37z m-5168 -240 c21 -34 36 -67 32 -75 -3 -8 -27 -29 -53&#xA;-46 l-48 -30 -31 35 c-48 56 -71 103 -58 123 14 22 91 63 107 57 7 -2 29 -31&#xA;51 -64z m5514 30 c23 -17 42 -35 42 -42 0 -17 -73 -127 -89 -133 -17 -7 -100&#xA;41 -108 61 -11 30 65 144 96 144 10 0 37 -14 59 -30z m-5825 -202 c37 -46 57&#xA;-80 57 -97 0 -11 -87 -81 -101 -81 -15 0 -100 120 -97 137 3 17 82 83 98 83 5&#xA;0 24 -19 43 -42z m6115 1 c23 -17 42 -37 42 -46 0 -18 -87 -133 -101 -133 -16&#xA;0 -97 60 -103 76 -5 12 63 109 88 126 19 13 31 9 74 -23z m-6379 -238 c28 -33&#xA;51 -66 51 -74 0 -18 -71 -77 -92 -77 -18 0 -108 103 -108 124 0 14 76 86 90&#xA;86 4 0 30 -27 59 -59z m6655 10 c38 -39 39 -41 23 -65 -9 -14 -34 -43 -56 -66&#xA;-32 -34 -43 -40 -58 -32 -30 16 -73 63 -73 80 0 22 89 122 109 122 9 0 34 -18&#xA;55 -39z m-6895 -247 c23 -26 41 -53 41 -60 0 -16 -46 -71 -71 -85 -16 -8 -28&#xA;-2 -70 38 -82 77 -84 93 -17 142 48 36 57 33 117 -35z m7144 16 c41 -38 42&#xA;-40 27 -66 -8 -15 -36 -45 -63 -67 l-47 -41 -45 44 c-25 24 -45 48 -45 53 0&#xA;14 102 117 117 117 8 0 33 -18 56 -40z m-3829 -137 c11 -76 1 -93 -54 -93 -45&#xA;0 -50 9 -50 90 0 64 6 70 65 67 29 -2 30 -4 39 -64z m246 -9 l0 -75 -52 3 -53&#xA;3 -3 59 c-4 82 -1 86 58 86 l50 0 0 -76z m246 54 c3 -5 3 -39 -1 -74 l-7 -65&#xA;-46 3 -47 3 -3 61 c-4 75 9 92 62 86 20 -2 39 -9 42 -14z m-753 -21 c3 -8 8&#xA;-40 12 -72 9 -66 2 -75 -58 -75 -44 0 -49 9 -51 88 -1 51 1 56 24 63 41 11 68&#xA;10 73 -4z m1004 -9 c9 -7 11 -25 7 -52 -11 -86 -12 -86 -50 -86 -63 0 -73 12&#xA;-67 77 7 75 17 86 62 78 20 -4 42 -11 48 -17z m-1258 -51 c5 -13 12 -44 16&#xA;-69 7 -44 6 -46 -26 -57 -67 -23 -83 -10 -96 86 -5 38 -3 44 18 52 44 18 79&#xA;13 88 -12z m1523 5 c11 -11 -6 -120 -22 -136 -5 -5 -25 -6 -52 0 l-43 9 1 51&#xA;c1 28 7 61 14 74 10 19 18 22 52 17 22 -3 45 -10 50 -15z m-1784 -69 c39 -104&#xA;33 -125 -38 -127 -40 -1 -43 1 -55 34 -29 84 -28 90 7 105 51 22 74 19 86 -12z&#xA;m2017 13 c39 -17 42 -28 22 -93 -18 -62 -28 -69 -76 -54 -51 15 -54 21 -41 72&#xA;26 97 32 101 95 75z m-2288 -88 c10 -14 43 -99 43 -111 0 -12 -89 -49 -100&#xA;-42 -13 8 -50 94 -50 117 0 32 87 62 107 36z m2548 -3 c20 -8 38 -21 41 -29 3&#xA;-8 -6 -40 -20 -71 -28 -62 -48 -69 -103 -35 l-33 20 21 52 c12 29 23 59 26 66&#xA;7 16 26 15 68 -3z m-2783 -150 c15 -27 28 -55 28 -61 0 -16 -43 -43 -78 -50&#xA;-27 -5 -30 -2 -55 54 -15 33 -27 62 -27 66 0 13 65 46 85 44 12 -2 31 -22 47&#xA;-53z m3042 34 c53 -23 53 -26 10 -104 -14 -25 -32 -45 -40 -45 -28 0 -84 29&#xA;-84 43 0 30 50 127 65 127 1 0 23 -9 49 -21z m-3287 -169 c17 -29 29 -58 27&#xA;-65 -5 -11 -74 -55 -88 -55 -13 0 -77 112 -72 125 6 16 76 55 91 51 5 -1 24&#xA;-26 42 -56z m3539 29 c19 -11 34 -27 34 -35 0 -21 -60 -114 -74 -114 -23 0&#xA;-81 46 -80 63 3 29 54 107 71 107 8 0 31 -9 49 -21z m-3776 -176 l41 -58 -37&#xA;-32 c-21 -18 -43 -33 -51 -33 -14 0 -82 88 -83 106 0 13 66 74 80 74 4 0 27&#xA;-26 50 -57z m4037 5 c14 -15 13 -20 -6 -50 -46 -73 -58 -82 -90 -68 -16 6 -38&#xA;21 -47 31 -17 19 -17 21 0 53 9 18 29 45 42 60 25 26 25 26 55 9 17 -10 37&#xA;-26 46 -35z m193 -154 l39 -36 -25 -38 c-50 -76 -81 -82 -133 -26 -24 25 -24&#xA;26 -5 48 29 35 78 88 81 88 2 0 21 -16 43 -36z m-4468 -1 c14 -16 33 -40 42&#xA;-54 16 -26 16 -27 -19 -58 -20 -17 -39 -31 -44 -31 -9 0 -101 95 -101 104 0&#xA;12 66 66 81 66 8 0 27 -12 41 -27z"></path>
<path d="M5420 9640 c-157 -38 -368 -88 -469 -111 l-183 -43 6 -40 c15 -90 25&#xA;-303 26 -527 0 -201 2 -238 15 -249 13 -10 118 -14 473 -15 251 -1 467 2 479&#xA;6 22 8 22 11 27 266 3 142 8 293 11 336 4 42 3 77 -2 77 -4 0 -165 1 -358 1&#xA;-192 1 -393 4 -445 8 l-95 6 285 67 c157 38 354 84 438 104 l154 36 -7 37&#xA;c-16 90 -25 111 -48 110 -12 0 -150 -31 -307 -69z m278 -19 l43 -36 -28 -12&#xA;c-49 -21 -80 -16 -123 23 -22 20 -40 40 -40 44 0 9 82 28 95 21 6 -2 29 -21&#xA;53 -40z m-235 -55 l48 -43 -46 -12 c-51 -13 -54 -12 -115 41 l-42 37 28 6 c16&#xA;4 34 8 39 10 26 9 44 1 88 -39z m-234 -48 c55 -45 54 -52 -12 -63 -34 -6 -42&#xA;-3 -80 31 -23 21 -43 41 -45 45 -2 5 45 22 79 28 4 1 29 -18 58 -41z m-233&#xA;-54 c24 -19 44 -39 44 -44 0 -5 -19 -13 -42 -18 -46 -9 -53 -6 -123 52 l-30&#xA;24 35 10 c57 17 71 14 116 -24z m47 -156 c-73 -98 -73 -98 -119 -98 -24 0 -44&#xA;4 -44 10 0 5 14 30 32 55 31 44 33 45 86 45 42 0 52 -3 45 -12z m209 -40 c-36&#xA;-49 -42 -53 -85 -56 -28 -2 -47 1 -47 7 0 6 14 31 32 56 31 44 33 45 85 45&#xA;l54 0 -39 -52z m240 0 c-37 -51 -41 -53 -90 -56 -29 -2 -52 -1 -52 2 0 3 16&#xA;28 36 56 35 49 36 50 90 50 l55 0 -39 -52z m268 46 c0 -4 -16 -28 -36 -55 -34&#xA;-47 -38 -49 -85 -49 -27 0 -49 2 -49 5 0 3 16 27 36 55 35 48 38 50 85 50 27&#xA;0 49 -3 49 -6z m-40 -244 c0 -7 -146 -10 -419 -10 -269 0 -422 4 -426 10 -4 7&#xA;138 10 419 10 277 0 426 -3 426 -10z m-5 -190 c4 -6 -38 -10 -119 -10 l-126 0&#xA;0 -75 c0 -43 -4 -75 -10 -75 -6 0 -10 32 -10 75 l0 76 -152 -3 -153 -3 -5 -75&#xA;-4 -75 -6 75 -5 75 -122 3 c-71 1 -123 7 -123 12 0 14 827 13 835 0z"></path>
<path d="M3193 9199 c-82 -40 -133 -121 -133 -208 l0 -50 -42 24 c-92 51 -175&#xA;41 -244 -29 -97 -97 -71 -248 53 -307 27 -12 49 -23 49 -23 1 -1 4 -10 8 -22&#xA;6 -19 2 -22 -50 -27 -31 -3 -58 -8 -61 -11 -6 -6 43 -92 58 -102 6 -3 24 6 40&#xA;22 18 17 33 24 38 18 5 -5 23 -55 41 -110 48 -159 19 -155 363 -40 290 98 343&#xA;123 332 159 -68 219 -110 330 -130 343 -23 15 -23 15 -5 52 55 116 17 239 -95&#xA;303 -64 37 -157 40 -222 8z m152 -115 c31 -14 65 -64 65 -94 0 -28 -35 -82&#xA;-61 -95 -48 -25 -87 -19 -125 19 -39 39 -44 77 -18 127 14 28 61 58 92 59 8 0&#xA;29 -7 47 -16z m-370 -237 c21 -31 19 -62 -8 -93 -60 -70 -164 3 -131 91 18 47&#xA;107 47 139 2z m200 -64 l48 -27 -68 -23 c-38 -12 -69 -22 -70 -20 -5 7 27 97&#xA;34 97 5 0 30 -12 56 -27z m395 -273 c0 -24 -26 -38 -42 -22 -16 16 -2 42 22&#xA;42 13 0 20 -7 20 -20z"></path>
<path d="M3708 8876 c-31 -35 -73 -71 -92 -80 l-34 -16 13 -43 c39 -123 38&#xA;-122 86 -119 24 1 76 -4 116 -11 40 -8 78 -10 85 -6 10 7 1 45 -42 171 -30 89&#xA;-59 163 -65 165 -5 1 -36 -26 -67 -61z"></path>
<path d="M3380 8329 l-25 -10 21 -17 c12 -9 46 -38 76 -65 48 -41 59 -46 87&#xA;-41 17 4 31 10 31 14 0 15 -133 130 -149 129 -9 0 -27 -5 -41 -10z"></path>
<path d="M3263 8293 c-25 -5 -26 -9 -48 -113 -9 -41 -18 -83 -21 -94 -5 -16&#xA;-3 -18 22 -12 43 11 50 23 68 112 18 90 20 115 9 113 -5 -1 -18 -4 -30 -6z"></path>
<path d="M6957 9186 c-84 -31 -140 -88 -169 -170 -22 -63 -22 -98 -2 -165 44&#xA;-150 228 -227 372 -155 94 47 146 131 146 239 0 73 -13 108 -60 171 -55 72&#xA;-200 113 -287 80z m42 -70 c16 -19 10 -66 -10 -79 -26 -16 -68 0 -75 29 -12&#xA;47 55 87 85 50z m151 -5 c16 -31 12 -49 -15 -67 -36 -24 -75 -6 -75 34 0 15 5&#xA;33 12 40 19 19 66 15 78 -7z m98 -134 c2 -28 -1 -38 -18 -47 -26 -14 -57 -5&#xA;-71 21 -22 42 20 86 66 69 14 -5 21 -18 23 -43z m-338 23 c11 -11 20 -28 20&#xA;-37 0 -25 -30 -53 -56 -53 -23 0 -54 33 -54 57 0 18 37 53 55 53 8 0 24 -9 35&#xA;-20z m160 -65 c0 -27 -26 -40 -46 -24 -19 16 -18 36 3 47 24 14 43 4 43 -23z&#xA;m-121 -81 c17 -21 19 -30 9 -48 -13 -24 -27 -36 -45 -36 -18 0 -53 37 -53 55&#xA;0 19 35 55 54 55 8 0 24 -12 35 -26z m269 3 c11 -57 -29 -91 -73 -63 -27 18&#xA;-31 36 -14 67 14 27 82 23 87 -4z m-138 -57 c24 -24 25 -38 3 -62 -33 -37 -83&#xA;-17 -83 34 0 45 46 62 80 28z"></path>
<path d="M7526 9054 c-67 -21 -137 -93 -161 -163 -25 -77 -17 -167 22 -229&#xA;125 -202 422 -157 489 74 35 120 -32 260 -149 309 -56 23 -144 27 -201 9z m65&#xA;-54 c34 -19 17 -90 -22 -90 -53 0 -78 49 -43 84 18 19 38 20 65 6z m159 -30&#xA;c24 -45 -25 -94 -69 -71 -15 8 -21 21 -21 45 0 18 3 36 7 39 3 4 21 7 39 7 23&#xA;0 37 -6 44 -20z m-258 -77 c36 -32 17 -83 -31 -83 -52 0 -76 45 -42 79 25 25&#xA;48 27 73 4z m333 -43 c15 -17 16 -24 7 -45 -13 -29 -56 -43 -77 -25 -24 20&#xA;-28 50 -9 71 22 25 56 24 79 -1z m-181 -35 c2 -7 -2 -21 -9 -32 -11 -14 -18&#xA;-16 -31 -7 -25 15 -27 29 -9 47 17 17 40 13 49 -8z m-128 -76 c17 -19 17 -23&#xA;3 -47 -20 -36 -61 -41 -83 -10 -20 28 -20 42 0 62 22 22 57 20 80 -5z m254&#xA;-19 c23 -23 25 -40 8 -62 -33 -41 -90 -24 -90 27 0 28 24 55 49 55 7 0 22 -9&#xA;33 -20z m-142 -46 c30 -21 29 -59 -3 -80 -23 -15 -27 -15 -50 0 -32 21 -33 59&#xA;-3 80 12 9 25 16 28 16 3 0 16 -7 28 -16z"></path>
<path d="M7230 8705 c-7 -8 -37 -27 -66 -41 -70 -34 -168 -36 -237 -6 l-45 20&#xA;-56 -127 c-63 -140 -68 -173 -33 -196 48 -31 503 -228 537 -232 26 -3 40 0 51&#xA;14 19 20 159 339 159 359 0 8 -22 23 -50 35 -53 23 -111 79 -137 133 -24 51&#xA;-95 75 -123 41z m115 -475 c0 -18 -6 -26 -23 -28 -27 -4 -40 22 -22 44 19 22&#xA;45 13 45 -16z"></path>
<path d="M7510 8337 c-22 -47 -40 -90 -40 -96 0 -5 9 -15 20 -21 11 -6 38 -37&#xA;60 -70 47 -69 57 -77 74 -59 26 29 140 309 130 319 -7 7 -36 7 -87 0 -55 -8&#xA;-82 -8 -97 0 -19 10 -24 5 -60 -73z"></path>
<path d="M9827 9360 c-14 -11 -56 -73 -93 -137 -173 -298 -343 -521 -579 -759&#xA;-347 -349 -721 -622 -1261 -921 -98 -55 -233 -128 -299 -163 -286 -150 -457&#xA;-257 -550 -342 -113 -102 -167 -214 -221 -453 -65 -288 -101 -380 -198 -497&#xA;-69 -83 -208 -192 -307 -240 -122 -60 -102 -76 -234 192 -136 278 -164 369&#xA;-250 790 -46 229 -78 355 -111 437 -3 7 12 14 43 19 144 21 312 130 395 258&#xA;40 61 51 113 23 102 -41 -15 -139 -36 -222 -47 -103 -13 -180 -5 -363 36 -384&#xA;87 -620 70 -802 -57 -32 -23 -68 -56 -79 -75 -17 -27 -27 -33 -55 -33 -68 0&#xA;-180 -22 -255 -51 -85 -33 -148 -81 -173 -133 -29 -62 -26 -65 67 -63 94 1&#xA;160 -13 267 -56 107 -43 176 -92 226 -159 62 -85 86 -155 92 -267 11 -213 -48&#xA;-361 -278 -706 -47 -71 -100 -152 -116 -178 -35 -58 -43 -58 -178 7 -172 83&#xA;-315 222 -391 381 -38 78 -63 163 -99 337 -48 225 -100 334 -215 447 -93 91&#xA;-214 167 -541 336 -601 311 -848 459 -1165 695 -362 271 -681 599 -904 930&#xA;-54 80 -117 179 -139 221 -52 93 -80 122 -118 117 -111 -12 -152 -535 -68&#xA;-873 67 -268 199 -522 389 -744 186 -219 427 -421 761 -637 67 -44 130 -84&#xA;140 -91 37 -24 -144 63 -286 138 -290 152 -533 319 -914 627 -47 37 -87 62&#xA;-101 62 -93 0 -62 -295 59 -570 181 -411 581 -725 1274 -998 108 -43 236 -91&#xA;285 -107 48 -15 85 -30 83 -32 -9 -9 -426 80 -571 122 -247 71 -538 186 -785&#xA;310 -69 34 -86 38 -104 20 -40 -41 1 -205 90 -354 95 -160 284 -363 442 -472&#xA;261 -181 650 -318 1022 -359 151 -17 159 -24 44 -39 -161 -21 -490 -29 -776&#xA;-18 -284 10 -298 9 -298 -35 0 -52 84 -162 211 -275 213 -189 486 -326 756&#xA;-380 65 -13 139 -17 288 -18 211 0 267 7 447 59 46 14 84 23 85 22 4 -4 -152&#xA;-102 -262 -166 -123 -71 -243 -129 -420 -205 -113 -48 -120 -53 -123 -82 -3&#xA;-25 4 -37 43 -71 53 -47 187 -118 292 -155 143 -51 327 -74 464 -58 128 16&#xA;198 35 304 83 116 53 173 88 263 161 41 32 75 57 77 55 3 -3 -21 -45 -216&#xA;-377 -44 -74 -79 -140 -79 -147 0 -46 138 -81 280 -71 204 14 409 104 593 261&#xA;76 64 68 70 87 -64 12 -85 40 -184 99 -350 22 -63 41 -123 41 -133 0 -31 -123&#xA;-258 -216 -397 -189 -283 -297 -426 -725 -954 -183 -225 -333 -471 -359 -586&#xA;-14 -66 -12 -173 4 -195 10 -14 30 -19 94 -23 139 -8 277 37 432 140 92 61&#xA;241 199 318 293 81 100 217 296 251 363 34 67 34 45 0 -39 -67 -163 -179 -520&#xA;-209 -664 -64 -307 -46 -552 43 -592 36 -17 106 2 174 46 187 121 345 393 463&#xA;797 22 76 41 139 43 140 1 1 2 -129 2 -289 1 -274 5 -338 36 -552 39 -268 133&#xA;-517 235 -621 28 -29 63 -56 77 -59 77 -20 193 132 275 360 47 129 88 335 113&#xA;570 11 113 15 494 5 568 l-6 42 14 -40 c8 -22 38 -113 66 -202 52 -166 142&#xA;-363 219 -480 61 -94 184 -218 245 -247 112 -53 160 -43 199 42 20 42 22 64&#xA;22 207 -1 168 -14 265 -60 446 -28 110 -116 368 -174 514 -22 54 -39 100 -38&#xA;102 2 1 26 -37 54 -85 112 -188 295 -411 426 -520 203 -167 398 -251 563 -240&#xA;89 6 99 18 98 116 -2 131 -70 282 -224 502 -74 106 -154 209 -381 491 -338&#xA;419 -664 903 -700 1039 -11 43 -9 50 38 175 48 124 88 259 115 389 l13 59 50&#xA;-43 c173 -150 431 -250 689 -267 69 -4 105 -2 146 10 113 33 117 58 32 183&#xA;-50 74 -216 331 -247 384 -5 8 13 -2 40 -23 252 -190 546 -280 810 -247 197&#xA;24 445 127 517 214 21 25 23 59 6 74 -7 6 -87 42 -178 82 -189 82 -349 165&#xA;-500 258 -142 88 -149 96 -54 67 530 -162 1011 -79 1404 243 167 137 280 274&#xA;280 338 0 52 -20 58 -172 45 -258 -22 -552 -13 -843 26 l-130 17 60 8 c33 4&#xA;114 15 180 24 470 63 879 263 1150 564 176 195 322 492 289 587 -16 48 -53 42&#xA;-202 -31 -270 -134 -508 -229 -727 -292 -136 -39 -503 -117 -488 -104 4 4 62&#xA;26 128 50 229 83 520 213 685 308 402 231 677 532 791 868 65 192 100 384 77&#xA;431 -20 40 -42 50 -77 33 -17 -8 -116 -82 -222 -165 -242 -190 -401 -304 -548&#xA;-393 -112 -68 -485 -262 -504 -262 -5 0 47 37 115 81 169 112 361 257 493 371&#xA;354 306 580 667 669 1070 37 165 52 402 37 569 -18 197 -55 319 -96 319 -7 0&#xA;-24 -9 -38 -20z m-4587 -1965 c24 -14 23 -14 -27 -15 l-53 0 0 -39 c0 -48 -26&#xA;-71 -79 -71 -35 0 -81 31 -81 55 0 7 -15 16 -32 20 l-33 7 40 15 c116 44 218&#xA;55 265 28z"></path>
<path d="M567 7233 c-113 -255 -156 -358 -204 -493 -136 -383 -221 -768 -265&#xA;-1210 -19 -196 -16 -713 5 -900 74 -645 227 -1168 504 -1728 93 -187 206 -383&#xA;323 -557 659 -983 1723 -1751 2892 -2086 265 -76 600 -143 879 -175 192 -22&#xA;739 -30 959 -15 808 57 1550 285 2262 695 1061 609 1836 1517 2254 2638 121&#xA;325 206 666 263 1054 19 129 21 187 21 647 0 489 -1 512 -25 684 -64 447 -181&#xA;854 -377 1309 -34 80 -65 141 -69 137 -4 -5 -20 -40 -37 -79 -16 -39 -68 -128&#xA;-115 -197 l-86 -127 64 -174 c36 -96 78 -221 95 -279 44 -149 32 -170 -113&#xA;-202 l-79 -17 -35 -57 c-20 -31 -49 -73 -66 -94 -16 -21 -28 -40 -26 -42 2 -2&#xA;80 14 173 35 222 51 224 50 255 -101 77 -372 91 -906 35 -1344 -26 -203 -23&#xA;-201 -322 -151 -521 86 -759 128 -783 137 -44 17 -51 43 -41 154 5 55 8 102 6&#xA;104 -2 2 -22 -12 -46 -31 -24 -19 -58 -43 -76 -54 l-33 -19 33 -11 c30 -10 33&#xA;-15 31 -49 -4 -56 -17 -67 -72 -59 -73 11 -91 20 -91 49 l0 25 -44 -22 c-40&#xA;-19 -45 -25 -51 -67 -15 -103 -71 -315 -122 -461 -252 -720 -808 -1368 -1498&#xA;-1745 -38 -21 -72 -40 -74 -41 -4 -3 185 -241 198 -249 5 -3 37 8 70 24 35 16&#xA;71 27 82 24 29 -8 50 -38 255 -378 102 -171 215 -358 250 -416 101 -166 96&#xA;-179 -112 -291 -538 -291 -1176 -492 -1789 -563 -71 -8 -137 -15 -147 -15 -24&#xA;0 -46 -75 -37 -130 4 -25 8 -66 8 -92 1 -55 -9 -61 -93 -57 -48 2 -57 -1 -87&#xA;-30 -63 -61 -137 -77 -205 -45 -45 22 -125 110 -169 187 l-35 62 0 -83 c0 -77&#xA;-2 -83 -23 -91 -21 -8 -47 -7 -106 5 -23 5 -23 7 -19 83 2 42 8 83 13 90 6 10&#xA;25 12 72 8 35 -2 63 -2 61 2 -2 3 -10 23 -18 44 -8 20 -19 37 -25 37 -29 0&#xA;-339 32 -395 41 -576 89 -1031 230 -1515 469 -297 147 -346 184 -331 246 11&#xA;44 514 866 549 897 30 27 54 21 159 -37 53 -29 100 -51 105 -47 22 14 202 244&#xA;198 251 -3 5 -53 33 -111 64 -429 227 -829 573 -1125 971 -283 381 -485 852&#xA;-559 1302 l-12 72 -86 47 c-47 26 -121 71 -165 101 -44 30 -82 52 -84 49 -5&#xA;-5 12 -175 23 -242 8 -46 -28 -83 -91 -95 -129 -25 -948 -159 -969 -159 -14 0&#xA;-37 10 -51 23 -25 21 -28 34 -45 172 -34 275 -45 519 -32 735 17 276 55 588&#xA;84 678 13 42 54 62 106 52 21 -4 113 -24 206 -44 93 -20 170 -35 172 -33 3 2&#xA;-26 45 -63 95 l-67 91 -121 28 c-126 29 -165 51 -165 94 0 48 150 501 195 589&#xA;12 24 9 32 -56 123 -39 53 -76 97 -83 97 -7 0 -22 9 -34 20 -18 17 -20 25 -11&#xA;47 7 20 5 38 -13 82 -12 31 -25 60 -28 64 -4 4 -19 -18 -33 -50z m72 -349 c38&#xA;-14 72 -32 75 -39 6 -18 -21 -100 -39 -115 -9 -8 -31 -4 -83 16 -39 14 -76 32&#xA;-81 38 -18 21 23 126 49 126 5 0 40 -12 79 -26z m9388 14 c16 -21 36 -96 30&#xA;-111 -5 -12 -97 -51 -141 -59 -26 -4 -58 43 -60 88 -1 37 0 38 64 65 74 31 94&#xA;34 107 17z m-9502 -361 l60 -22 -1 -42 c0 -23 -8 -53 -18 -67 -18 -29 -22 -28&#xA;-121 3 -45 14 -50 19 -53 47 -2 18 4 48 12 68 18 43 34 45 121 13z m9635 -7&#xA;c7 -17 13 -47 14 -67 l1 -37 -74 -23 c-41 -13 -80 -22 -87 -19 -14 5 -48 100&#xA;-42 118 5 13 120 56 154 57 15 1 25 -8 34 -29z m-9745 -358 c63 -16 70 -21 73&#xA;-44 2 -15 -2 -45 -8 -69 l-11 -42 -52 7 c-29 3 -69 11 -91 17 -38 11 -38 11&#xA;-33 53 8 58 24 96 39 96 7 0 45 -8 83 -18z m9854 -50 c18 -68 10 -77 -88 -94&#xA;-67 -11 -74 -11 -86 5 -18 26 -28 97 -14 113 14 17 83 33 134 31 39 -2 40 -3&#xA;54 -55z m-9920 -273 c77 -13 92 -27 84 -77 -11 -71 -17 -75 -95 -68 -103 9&#xA;-112 16 -104 79 7 52 20 77 39 77 6 0 40 -5 76 -11z m9959 2 c8 -4 16 -34 19&#xA;-68 6 -71 5 -72 -104 -80 -72 -6 -73 -6 -83 21 -5 15 -10 45 -10 66 0 37 2 40&#xA;38 49 79 20 121 24 140 12z m-9986 -331 c29 0 53 -6 63 -16 19 -19 18 -79 -2&#xA;-112 -14 -22 -19 -23 -81 -17 -104 10 -102 9 -102 70 0 61 20 90 54 81 12 -3&#xA;42 -6 68 -6z m10020 -2 c21 -17 33 -112 16 -126 -7 -5 -46 -13 -86 -17 -93 -9&#xA;-102 -2 -102 76 0 65 0 65 90 72 25 2 50 4 56 5 5 1 17 -4 26 -10z m-9967&#xA;-398 l0 -65 -90 0 -90 0 -3 54 c-5 82 -5 82 95 79 l88 -3 0 -65z m9999 54 c9&#xA;-23 7 -97 -2 -112 -6 -9 -33 -12 -98 -10 l-89 3 -3 54 c-5 81 -5 81 97 81 72&#xA;0 90 -3 95 -16z m-10001 -316 c23 -17 35 -109 16 -124 -8 -6 -46 -14 -86 -18&#xA;-90 -8 -103 2 -103 80 0 60 1 60 90 67 25 2 50 4 56 5 5 1 18 -4 27 -10z&#xA;m9986 -11 c18 -15 6 -107 -16 -124 -11 -9 -36 -11 -72 -7 -105 10 -101 7 -101&#xA;74 0 44 4 61 16 68 21 12 155 3 173 -11z m-8461 -208 l3 -47 -67 -11 c-40 -7&#xA;-71 -8 -76 -3 -5 5 -10 28 -11 52 -2 39 1 44 23 51 14 4 48 7 75 6 l50 -2 3&#xA;-46z m-1478 -125 c6 -14 10 -43 10 -64 0 -37 -2 -40 -37 -49 -77 -19 -129 -22&#xA;-141 -9 -18 22 -26 114 -11 124 18 11 76 21 127 23 37 1 44 -2 52 -25z m9854&#xA;17 c55 -9 68 -24 60 -66 -10 -53 -15 -65 -32 -74 -20 -10 -141 6 -160 22 -15&#xA;12 -8 93 10 115 12 14 50 15 122 3z m-8339 -98 c12 -32 35 -124 35 -143 0 -14&#xA;-11 -22 -38 -29 -87 -24 -100 -24 -111 -4 -14 27 -36 151 -28 159 6 6 100 31&#xA;123 33 7 1 15 -7 19 -16z m6808 -5 c20 -6 37 -17 37 -25 0 -36 -33 -155 -45&#xA;-159 -15 -6 -124 21 -136 33 -8 8 21 138 36 162 7 12 35 9 108 -11z m-7047&#xA;-49 c12 -12 27 -49 39 -97 62 -263 200 -605 354 -872 50 -87 91 -168 91 -180&#xA;0 -12 -12 -33 -27 -46 -43 -37 -835 -555 -864 -566 -19 -6 -37 -5 -62 6 -29&#xA;12 -48 36 -112 143 -203 339 -407 835 -498 1208 -40 163 -41 169 -15 200 22&#xA;25 53 33 528 130 278 56 514 100 525 98 11 -3 29 -14 41 -24z m7561 -39 c663&#xA;-132 687 -138 706 -161 24 -29 22 -62 -13 -200 -104 -411 -293 -868 -503&#xA;-1214 -71 -117 -91 -141 -123 -149 -37 -10 -71 9 -314 171 -124 82 -312 207&#xA;-418 277 -135 88 -196 134 -203 152 -11 30 -8 35 71 164 148 242 307 627 375&#xA;909 21 86 41 111 89 111 19 0 169 -27 333 -60z m-8788 -139 c19 -34 24 -96 9&#xA;-108 -15 -12 -106 -33 -143 -33 -20 0 -26 7 -35 41 -6 22 -10 53 -8 67 3 24 9&#xA;28 58 39 82 17 108 16 119 -6z m9741 6 l65 -13 -1 -53 c-3 -79 -16 -88 -105&#xA;-73 -39 7 -76 15 -81 19 -13 7 -3 100 13 119 14 17 24 17 109 1z m-8177 -120&#xA;c23 -46 15 -59 -50 -81 -67 -23 -79 -21 -92 15 -22 63 -18 68 89 103 25 8 34&#xA;1 53 -37z m6582 30 c76 -23 80 -28 63 -78 -14 -40 -18 -44 -46 -43 -17 1 -48&#xA;10 -69 20 -33 17 -38 23 -36 52 1 34 18 62 37 62 6 0 29 -6 51 -13z m-8077&#xA;-219 c5 -7 15 -33 22 -58 11 -40 10 -46 -8 -61 -23 -18 -134 -44 -155 -36 -18&#xA;7 -43 105 -31 117 9 8 130 48 150 49 6 1 16 -5 22 -11z m9617 -17 c55 -18 56&#xA;-22 34 -103 -8 -31 -14 -38 -35 -38 -31 0 -135 29 -148 40 -12 12 2 97 20 115&#xA;16 16 45 13 129 -14z m-8029 -26 c7 -19 14 -39 14 -45 0 -13 -94 -60 -120 -60&#xA;-15 0 -26 11 -36 35 -22 53 -18 61 39 83 74 29 86 28 103 -13z m6421 11 c51&#xA;-24 52 -25 43 -56 -11 -39 -28 -60 -47 -60 -7 0 -36 11 -63 25 -53 27 -60 43&#xA;-38 90 14 32 38 32 105 1z m-114 -227 c12 -6 30 -18 39 -26 16 -14 16 -18 -2&#xA;-54 -11 -20 -24 -40 -29 -44 -12 -7 -102 37 -120 59 -13 16 -4 43 26 78 15 17&#xA;32 15 86 -13z m-6199 -4 c29 -44 21 -62 -42 -94 -32 -16 -63 -26 -69 -23 -12&#xA;8 -43 66 -43 81 0 14 89 60 116 61 12 0 29 -11 38 -25z m-1580 -93 c16 -46 17&#xA;-55 5 -66 -19 -19 -137 -56 -154 -50 -8 3 -21 28 -31 56 -20 61 -14 68 66 97&#xA;80 29 92 25 114 -37z m9367 37 c80 -24 93 -40 77 -92 -20 -65 -34 -70 -112&#xA;-43 -37 13 -73 29 -79 35 -16 16 19 121 40 121 3 0 36 -9 74 -21z m-7661 -161&#xA;c11 -18 20 -38 20 -45 0 -13 -93 -73 -114 -73 -20 0 -59 57 -52 75 6 17 94 75&#xA;113 75 7 0 22 -15 33 -32z m5989 -36 c13 -25 -21 -82 -49 -82 -18 0 -120 56&#xA;-120 66 0 15 32 64 47 73 21 11 107 -29 122 -57z m-7580 -136 c30 -59 25 -70&#xA;-49 -102 -82 -35 -97 -32 -120 22 -11 25 -20 52 -20 60 0 17 116 74 145 71 13&#xA;-1 28 -19 44 -51z m9132 33 c32 -12 65 -29 74 -39 15 -17 15 -22 -4 -64 -11&#xA;-26 -27 -49 -36 -52 -18 -7 -130 32 -146 52 -22 26 17 121 50 124 2 0 30 -10&#xA;62 -21z m-7402 -65 c12 -15 21 -32 21 -38 -1 -15 -94 -86 -113 -86 -18 0 -47&#xA;42 -47 68 0 20 75 81 102 82 9 0 26 -12 37 -26z m5665 -9 c25 -20 46 -42 46&#xA;-50 0 -8 -11 -26 -24 -42 -22 -26 -25 -27 -51 -13 -14 8 -43 28 -63 45 l-36&#xA;32 23 31 c29 41 47 40 105 -3z m-5776 -230 c211 -253 430 -464 660 -638 139&#xA;-104 160 -130 144 -176 -5 -14 -88 -145 -183 -291 -96 -146 -219 -334 -274&#xA;-419 -108 -166 -136 -191 -190 -171 -66 25 -348 241 -545 416 -214 190 -489&#xA;490 -606 660 -57 82 -49 97 116 212 125 87 477 335 614 434 149 107 152 107&#xA;264 -27z m6025 48 c140 -97 526 -372 649 -461 119 -87 146 -119 134 -164 -8&#xA;-31 -168 -230 -305 -381 -227 -250 -519 -503 -794 -691 -73 -49 -115 -58 -154&#xA;-31 -11 8 -72 95 -134 192 -62 98 -184 286 -271 418 -88 132 -161 250 -165&#xA;263 -11 47 6 67 154 179 238 179 454 383 601 568 135 170 130 165 168 165 27&#xA;0 56 -14 117 -57z m-5774 21 c12 -15 21 -32 21 -39 0 -15 -85 -95 -102 -95&#xA;-20 0 -58 42 -58 66 0 15 16 34 48 58 26 19 52 36 59 36 6 0 21 -12 32 -26z&#xA;m5372 -6 c62 -48 66 -60 40 -97 -12 -17 -29 -31 -37 -31 -18 0 -114 79 -114&#xA;94 0 11 50 66 61 66 4 0 26 -15 50 -32z m-7136 -34 c22 -9 57 -81 50 -103 -8&#xA;-27 -131 -84 -153 -72 -23 12 -56 85 -48 106 4 12 49 38 133 74 1 1 9 -2 18&#xA;-5z m8898 -25 c34 -17 65 -36 69 -42 9 -14 -17 -76 -42 -102 -20 -19 -20 -19&#xA;-85 13 -69 34 -81 48 -71 85 7 28 43 77 57 77 5 0 38 -14 72 -31z m-6999 -190&#xA;c-27 -27 -54 -49 -60 -49 -7 0 -24 14 -38 31 -31 36 -27 48 35 104 l42 38 35&#xA;-38 34 -37 -48 -49z m5091 74 c24 -20 46 -42 49 -50 7 -16 -41 -73 -62 -73&#xA;-20 0 -102 79 -102 98 0 16 45 62 60 62 6 0 31 -17 55 -37z m-4907 -146 c12&#xA;-11 22 -27 22 -34 0 -16 -78 -103 -92 -103 -19 0 -68 42 -68 58 0 24 88 115&#xA;103 106 6 -4 22 -16 35 -27z m4751 -23 c23 -26 41 -50 41 -54 0 -15 -53 -60&#xA;-70 -60 -10 0 -37 23 -60 51 l-43 50 29 30 c15 16 36 29 45 29 10 0 36 -21 58&#xA;-46z m-6647 -10 c15 -21 27 -47 28 -57 0 -20 -116 -99 -139 -95 -21 4 -71 79&#xA;-68 103 2 20 123 98 142 92 5 -2 22 -21 37 -43z m8566 0 c35 -23 52 -40 52&#xA;-54 0 -27 -46 -100 -63 -100 -17 0 -129 67 -139 83 -10 15 -6 25 27 77 30 48&#xA;39 47 123 -6z m-6498 -110 c17 -15 29 -33 26 -40 -12 -32 -72 -103 -87 -104&#xA;-21 0 -69 38 -69 55 0 16 77 115 89 115 5 0 24 -12 41 -26z m4387 -16 c53 -57&#xA;58 -74 27 -103 -39 -36 -59 -31 -99 23 -41 56 -42 65 -13 92 30 28 49 25 85&#xA;-12z m-4206 -119 c16 -11 29 -26 29 -32 0 -20 -70 -117 -84 -117 -21 0 -66 40&#xA;-66 58 1 21 66 112 81 112 6 0 24 -9 40 -21z m3995 13 c13 -8 74 -102 74 -114&#xA;0 -10 -61 -48 -77 -48 -10 0 -83 106 -83 121 0 7 60 49 70 49 3 0 10 -4 16 -8z&#xA;m-6017 -107 c17 -20 31 -44 31 -54 0 -12 -25 -37 -66 -66 -63 -45 -66 -46 -85&#xA;-29 -30 27 -60 80 -54 95 8 19 106 88 126 89 10 0 31 -16 48 -35z m8104 -6&#xA;c35 -25 57 -47 57 -59 0 -25 -57 -90 -79 -90 -18 0 -131 85 -131 99 0 19 62&#xA;91 78 91 11 0 44 -18 75 -41z m-5878 -25 c14 -9 25 -23 25 -30 0 -23 -49 -114&#xA;-65 -120 -16 -7 -72 24 -79 43 -3 7 9 37 27 68 34 59 51 66 92 39z m3624 -34&#xA;c37 -60 38 -75 9 -94 -44 -28 -59 -24 -89 24 -34 55 -36 84 -7 104 37 26 54&#xA;19 87 -34z m-5650 -187 c17 -21 31 -45 31 -53 0 -16 -77 -92 -111 -110 -21&#xA;-12 -51 10 -79 55 -19 30 -20 38 -8 52 22 28 109 93 123 93 8 0 27 -17 44 -37z&#xA;m7702 -9 c30 -26 55 -53 57 -60 4 -16 -43 -81 -69 -95 -14 -7 -30 2 -78 47&#xA;-34 31 -61 60 -61 65 0 14 71 89 84 89 7 0 37 -21 67 -46z m-7487 -228 c20&#xA;-18 36 -42 36 -53 0 -19 -99 -123 -117 -123 -12 0 -93 83 -93 95 -1 13 112&#xA;114 127 115 6 0 28 -15 47 -34z m7272 -17 c30 -29 54 -59 54 -67 0 -18 -73&#xA;-92 -90 -92 -17 0 -120 103 -120 120 0 16 74 90 89 90 7 0 37 -23 67 -51z&#xA;m-7056 -194 c30 -16 60 -51 60 -71 0 -18 -99 -124 -116 -124 -17 0 -97 76 -93&#xA;88 7 17 102 122 111 122 5 0 22 -7 38 -15z m6819 -42 c28 -31 51 -62 51 -69 0&#xA;-15 -79 -84 -95 -84 -14 0 -115 113 -115 128 0 14 78 82 94 82 8 0 37 -26 65&#xA;-57z m-6546 -184 c20 -17 37 -38 37 -47 0 -23 -70 -119 -92 -127 -21 -7 -108&#xA;51 -108 73 0 14 61 96 89 120 22 18 32 15 74 -19z m6241 25 c21 -8 96 -107 96&#xA;-127 0 -21 -75 -79 -97 -75 -9 2 -37 29 -61 60 -50 65 -50 79 5 121 41 31 36&#xA;29 57 21z m-5987 -211 c24 -16 46 -36 49 -46 6 -19 -41 -100 -76 -132 -18 -16&#xA;-21 -16 -53 4 -18 11 -41 29 -51 40 -16 17 -16 22 -3 48 20 38 76 113 84 113&#xA;3 0 26 -12 50 -27z m5768 -34 c25 -34 45 -69 45 -80 0 -21 -85 -83 -104 -76&#xA;-18 7 -97 127 -93 141 3 10 93 76 103 76 2 0 24 -27 49 -61z m-5496 -144 c27&#xA;-13 51 -31 55 -41 10 -26 -67 -154 -92 -154 -19 0 -102 61 -102 74 0 22 74&#xA;146 87 146 2 0 25 -11 52 -25z m5187 17 c7 -4 28 -37 48 -74 l37 -66 -33 -25&#xA;c-18 -14 -45 -30 -60 -36 -31 -12 -39 -4 -86 80 l-32 56 23 20 c20 19 75 52&#xA;87 52 3 1 10 -3 16 -7z m-4876 -182 c27 -14 40 -27 40 -40 0 -30 -58 -140 -77&#xA;-147 -19 -7 -103 34 -111 55 -3 8 5 35 17 61 49 100 61 107 131 71z m4625 -50&#xA;c19 -38 35 -73 35 -78 0 -11 -93 -62 -114 -62 -19 0 -90 135 -82 156 7 17 75&#xA;53 103 54 18 0 30 -14 58 -70z m-4329 -89 c23 -10 45 -24 49 -31 4 -6 -8 -45&#xA;-25 -86 -37 -84 -50 -90 -120 -54 -49 25 -50 39 -11 125 33 72 41 76 107 46z&#xA;m4017 -44 c41 -87 40 -98 -13 -124 -73 -38 -84 -33 -115 46 -15 38 -25 77 -22&#xA;85 8 20 77 56 102 53 14 -1 29 -21 48 -60z m-3685 -87 c23 -10 42 -23 42 -28&#xA;0 -26 -42 -141 -55 -152 -12 -10 -25 -8 -65 6 -73 26 -75 32 -49 106 12 35 27&#xA;69 32 76 13 17 45 15 95 -8z m3340 8 c14 -17 52 -119 52 -139 0 -23 -106 -66&#xA;-128 -52 -17 10 -52 111 -52 149 0 36 105 70 128 42z m-3017 -105 c50 -10 55&#xA;-25 35 -109 -10 -42 -24 -78 -32 -81 -19 -7 -111 16 -124 32 -8 10 -7 30 5 76&#xA;24 90 31 102 62 94 14 -3 38 -9 54 -12z m2687 4 c6 -7 16 -33 21 -59 6 -25 15&#xA;-57 20 -72 9 -22 7 -28 -13 -41 -13 -9 -46 -18 -74 -22 l-51 -6 -17 58 c-9 32&#xA;-17 72 -18 89 -1 29 3 32 49 48 61 21 70 21 83 5z m-2311 -100 c11 -11 12 -26&#xA;2 -85 -7 -40 -18 -77 -25 -83 -15 -13 -95 -2 -120 15 -15 12 -16 20 -4 82 7&#xA;38 18 75 23 83 14 17 104 8 124 -12z m1970 11 c6 -7 16 -44 24 -82 12 -62 12&#xA;-69 -4 -81 -22 -16 -108 -28 -120 -16 -16 16 -38 153 -26 167 19 23 111 31&#xA;126 12z m-1641 -54 c30 -6 33 -19 20 -104 l-12 -75 -54 -3 c-83 -4 -92 7 -84&#xA;96 4 41 13 80 21 87 12 13 43 13 109 -1z m1308 -13 c2 -9 7 -46 11 -83 6 -59&#xA;4 -68 -13 -77 -22 -12 -104 -17 -119 -8 -7 4 -15 33 -18 65 -4 31 -8 64 -11&#xA;72 -7 27 14 44 63 50 60 7 81 3 87 -19z"></path>
<path d="M1411 4119 c-50 -15 -125 -95 -145 -157 -14 -42 -15 -61 -7 -106 13&#xA;-72 31 -104 79 -148 52 -47 98 -61 182 -56 84 4 138 38 183 110 44 71 49 159&#xA;13 232 -54 111 -177 161 -305 125z m119 -59 c6 -12 8 -30 5 -40 -7 -24 -52&#xA;-37 -74 -23 -20 13 -26 50 -11 69 19 21 67 18 80 -6z m121 -61 c38 -38 9 -89&#xA;-44 -75 -35 8 -46 49 -22 76 23 25 40 25 66 -1z m-252 -16 c19 -23 20 -29 8&#xA;-47 -17 -25 -52 -32 -73 -16 -20 17 -18 67 4 79 27 16 39 13 61 -16z m119 -97&#xA;c-2 -13 -10 -21 -23 -21 -23 0 -33 34 -14 45 20 13 40 -1 37 -24z m148 -41&#xA;c15 -23 15 -27 0 -50 -9 -14 -24 -25 -33 -25 -24 0 -53 30 -53 55 0 48 58 62&#xA;86 20z m-258 3 c19 -19 14 -55 -10 -72 -12 -9 -26 -16 -30 -16 -13 0 -48 39&#xA;-48 54 0 37 61 61 88 34z m130 -70 c7 -7 12 -25 12 -40 0 -50 -76 -60 -94 -12&#xA;-9 24 -8 31 10 48 18 19 55 21 72 4z"></path>
<path d="M925 3926 c-84 -37 -135 -117 -135 -213 1 -200 225 -303 373 -172&#xA;130 113 97 320 -60 386 -41 17 -139 16 -178 -1z m109 -52 c21 -21 20 -40 -4&#xA;-64 -27 -27 -56 -25 -76 5 -14 21 -15 31 -6 50 14 29 61 34 86 9z m128 -61&#xA;c38 -35 14 -87 -39 -81 -38 4 -55 49 -28 78 22 24 42 25 67 3z m-238 -49 c21&#xA;-20 20 -43 -1 -66 -23 -26 -59 -23 -79 7 -15 23 -15 27 0 50 19 29 56 33 80 9z&#xA;m110 -40 c8 -20 -1 -34 -20 -34 -20 0 -30 30 -13 41 20 12 26 11 33 -7z m119&#xA;-75 c26 -41 -21 -91 -64 -68 -25 13 -35 55 -18 75 16 19 68 15 82 -7z m-159&#xA;-18 c26 -29 17 -73 -16 -85 -55 -19 -93 55 -46 88 29 21 41 20 62 -3z"></path>
<path d="M1278 3653 c-9 -2 -19 -16 -23 -30 -18 -74 -101 -145 -192 -163 -43&#xA;-9 -53 -15 -49 -28 3 -9 12 -68 22 -130 21 -141 25 -146 116 -139 92 8 467 67&#xA;500 79 14 5 29 19 31 30 7 24 -48 347 -61 360 -4 4 -23 3 -42 -2 -55 -16 -125&#xA;-12 -182 10 -51 19 -84 23 -120 13z m342 -338 c0 -20 -5 -25 -25 -25 -18 0&#xA;-25 5 -25 18 0 24 8 32 32 32 13 0 18 -7 18 -25z"></path>
<path d="M1775 3624 c-49 -42 -90 -66 -100 -56 -8 7 -3 -27 16 -124 9 -49 12&#xA;-52 45 -59 19 -3 55 -15 80 -26 66 -28 85 -26 79 9 -20 119 -45 276 -45 283 0&#xA;20 -37 6 -75 -27z"></path>
<path d="M9159 3932 l-64 -177 -200 -5 -200 -5 155 -124 c121 -97 154 -128&#xA;152 -145 -1 -11 -24 -95 -52 -186 -27 -90 -47 -166 -46 -168 2 -2 76 45 164&#xA;103 l160 107 161 -108 c89 -59 163 -105 165 -103 2 2 -21 87 -50 189 l-54 184&#xA;27 22 c16 13 85 67 155 121 70 54 127 100 127 103 1 3 -86 6 -192 8 -105 2&#xA;-195 7 -199 11 -5 4 -36 81 -69 171 -34 91 -64 168 -68 172 -4 4 -36 -72 -72&#xA;-170z m96 -217 l27 -74 80 -3 80 -3 -61 -44 c-34 -25 -61 -52 -61 -62 0 -9 9&#xA;-45 19 -78 10 -34 17 -61 14 -61 -2 0 -31 18 -63 40 -32 22 -62 40 -66 40 -4&#xA;0 -32 -18 -61 -41 -30 -22 -57 -39 -60 -36 -2 3 5 36 16 73 11 37 18 71 15 76&#xA;-3 5 -33 29 -66 53 l-61 44 84 3 83 3 25 72 c15 40 27 73 27 73 1 0 14 -34 29&#xA;-75z"></path>
<path d="M2220 2661 c-95 -31 -178 -100 -219 -183 -17 -34 -31 -67 -31 -73 0&#xA;-6 -11 -17 -25 -23 -25 -11 -25 -14 -25 -128 l0 -116 35 -33 c20 -17 57 -65&#xA;83 -106 l47 -74 0 -96 0 -97 170 -36 c94 -20 187 -39 208 -43 l37 -6 0 70 0&#xA;70 63 7 c34 4 73 14 85 22 34 22 52 74 52 149 l0 65 34 0 c55 0 63 20 38 99&#xA;-15 46 -22 93 -22 148 0 78 -1 83 -29 105 -15 13 -40 49 -54 80 -32 72 -102&#xA;142 -175 176 -47 21 -74 27 -152 29 -52 1 -106 -1 -120 -6z m490 -409 c0 -63&#xA;-4 -102 -12 -110 -8 -8 -56 -12 -149 -12 -136 0 -138 0 -158 26 -11 14 -23 35&#xA;-26 45 -12 36 -56 20 -83 -28 l-23 -43 -139 0 c-174 0 -170 -3 -170 126 l0 94&#xA;380 0 380 0 0 -98z"></path>
<path d="M2428 2307 c-18 -6 -20 -13 -14 -57 11 -83 6 -80 122 -80 92 0 104 2&#xA;114 19 12 23 13 90 2 107 -8 14 -193 23 -224 11z"></path>
<path d="M2014 2296 c-3 -7 -4 -38 -2 -67 l3 -54 110 0 110 0 9 52 c14 82 13&#xA;83 -114 83 -84 0 -112 -3 -116 -14z"></path>
<path d="M8162 2668 c-124 -19 -241 -119 -283 -240 -7 -21 -19 -38 -25 -38&#xA;-28 0 -44 -44 -44 -121 0 -49 -7 -99 -21 -143 -24 -77 -17 -96 36 -96 l32 0 6&#xA;-81 c4 -59 11 -89 25 -108 21 -28 76 -49 135 -50 l37 -1 0 -70 c0 -56 3 -70&#xA;15 -70 9 0 100 18 204 40 103 22 191 40 194 40 4 0 7 45 7 100 l0 99 47 73&#xA;c25 40 63 87 82 104 l36 32 3 109 c4 109 4 110 -23 131 -15 12 -40 48 -55 80&#xA;-15 32 -42 75 -60 96 -79 89 -218 135 -348 114z m448 -417 c0 -72 -4 -102 -14&#xA;-110 -9 -8 -60 -11 -157 -9 l-143 3 -20 40 c-30 57 -56 58 -93 3 l-29 -43 -99&#xA;-8 c-106 -8 -171 -3 -192 15 -9 7 -13 40 -13 109 l0 99 380 0 380 0 0 -99z"></path>
<path d="M7933 2313 c-26 -5 -30 -20 -23 -88 l5 -50 107 -3 107 -3 10 38 c13&#xA;44 14 90 4 96 -12 7 -185 15 -210 10z"></path>
<path d="M8315 2291 c-3 -11 -3 -32 0 -48 4 -15 8 -37 10 -49 4 -18 14 -22 72&#xA;-27 38 -3 86 -2 108 2 37 6 41 9 49 48 5 23 6 53 2 67 l-6 26 -115 0 c-103 0&#xA;-114 -2 -120 -19z"></path>
<path d="M1650 5451 l0 -49 128 -4 c70 -2 128 -3 130 -2 1 1 -32 14 -75 29&#xA;-43 15 -100 38 -127 51 -28 13 -51 24 -53 24 -2 0 -3 -22 -3 -49z"></path>
<path d="M8810 5414 l-85 -33 98 -1 c102 0 103 1 91 48 -7 26 1 27 -104 -14z"></path>
</g>
  </svg>
  <svg x="247.50" y="35.00" width="764.70" height="130.00" viewBox="0 0 718.641264 122.169325" overflow="visible">
    <g transform="translate(-0.831941,122.169325) scale(0.100000,-0.100000)" fill="#000000" stroke="none">
<path d="M39 1183 c16 -21 84 -99 150 -173 l121 -135 0 -97 0 -98 85 0 85 0 0&#xA;94 0 94 145 172 c80 94 145 173 145 176 0 2 -47 4 -104 4 l-103 0 -77 -99&#xA;c-42 -55 -80 -103 -85 -106 -5 -3 -49 42 -96 100 l-87 105 -105 0 -105 0 31&#xA;-37z"></path>
<path d="M820 968 c-73 -139 -137 -261 -142 -270 -8 -17 -1 -18 85 -18 l93 0&#xA;22 45 22 45 180 0 180 0 22 -45 22 -45 94 0 94 0 -25 43 c-13 23 -77 144 -142&#xA;270 l-117 227 -128 0 -127 0 -133 -252z m328 22 l53 -100 -120 0 -121 0 50&#xA;100 c35 69 56 100 68 100 11 0 34 -32 70 -100z"></path>
<path d="M1540 950 l0 -270 80 0 80 0 0 70 0 70 154 0 c182 0 186 -2 186 -86&#xA;l0 -54 80 0 80 0 0 80 c0 73 -3 83 -25 105 -13 14 -32 25 -42 25 -11 1 -5 6&#xA;15 15 47 20 65 70 60 162 -4 84 -25 121 -79 140 -23 8 -124 12 -311 12 l-278&#xA;1 0 -270z m488 118 c7 -7 12 -28 12 -48 0 -20 -5 -41 -12 -48 -8 -8 -60 -12&#xA;-170 -12 l-158 0 0 60 0 60 158 0 c110 0 162 -4 170 -12z"></path>
<path d="M2290 951 l0 -271 80 0 80 0 0 64 0 64 188 4 c212 4 248 14 276 73&#xA;21 44 22 211 1 261 -26 63 -53 68 -357 72 l-268 4 0 -271z m461 119 c14 -8 19&#xA;-21 19 -55 0 -34 -5 -47 -19 -55 -11 -5 -83 -10 -160 -10 l-141 0 0 65 0 65&#xA;141 0 c77 0 149 -5 160 -10z"></path>
<path d="M3010 950 l0 -270 85 0 85 0 0 100 0 100 185 0 185 0 0 -100 0 -100&#xA;85 0 85 0 0 270 0 270 -85 0 -85 0 0 -95 0 -95 -185 0 -185 0 0 95 0 95 -85 0&#xA;-85 0 0 -270z"></path>
<path d="M3882 1203 c-60 -29 -67 -56 -67 -253 0 -277 -4 -275 360 -275 230 0&#xA;253 2 290 20 68 34 80 72 80 255 0 135 -3 160 -20 195 -36 71 -53 75 -350 75&#xA;-220 0 -265 -3 -293 -17z m473 -138 c23 -22 25 -32 25 -119 0 -91 -1 -95 -27&#xA;-116 -26 -20 -37 -21 -185 -18 -199 4 -193 0 -193 139 0 140 -2 139 202 139&#xA;150 0 155 -1 178 -25z"></path>
<path d="M4640 950 l0 -270 300 0 300 0 0 65 0 65 -220 0 -220 0 0 40 0 40&#xA;205 0 205 0 0 60 0 60 -205 0 -205 0 0 40 0 40 215 0 215 0 0 65 0 65 -295 0&#xA;-295 0 0 -270z"></path>
<path d="M5310 950 l0 -270 80 0 80 0 0 201 c0 150 3 200 12 197 6 -2 74 -93&#xA;151 -201 l139 -197 144 0 144 0 0 270 0 270 -86 0 -86 0 4 -200 c2 -133 0&#xA;-200 -7 -200 -5 1 -73 91 -149 200 l-140 200 -143 0 -143 0 0 -270z"></path>
<path d="M6150 950 l0 -270 85 0 85 0 0 270 0 270 -85 0 -85 0 0 -270z"></path>
<path d="M6509 1101 c61 -65 118 -124 127 -131 13 -12 -2 -31 -123 -152 l-138&#xA;-138 120 1 120 1 85 95 85 96 90 -97 90 -96 115 0 115 0 -138 138 -137 137&#xA;132 133 133 132 -116 0 -116 0 -83 -96 c-66 -76 -85 -93 -95 -82 -6 7 -44 50&#xA;-84 96 l-73 82 -110 0 -110 0 111 -119z"></path>
<path d="M2714 540 c-153 -17 -167 -41 -162 -285 5 -258 -1 -254 338 -254 129&#xA;-1 241 4 263 10 45 12 72 50 82 115 11 78 5 84 -86 84 -77 0 -79 -1 -79 -24 0&#xA;-46 -31 -56 -176 -56 -178 0 -179 1 -179 140 0 139 1 140 177 140 135 0 168&#xA;-8 168 -40 0 -18 7 -20 86 -20 l85 0 -6 58 c-15 120 -42 134 -270 138 -93 1&#xA;-202 -1 -241 -6z"></path>
<path d="M34 478 c12 -35 58 -156 101 -271 l78 -207 127 0 127 0 48 182 c27&#xA;101 51 189 55 196 4 7 26 -60 50 -150 24 -90 47 -178 52 -196 l9 -32 127 0&#xA;127 0 98 253 c53 138 100 260 103 270 6 15 -2 17 -79 17 l-86 0 -19 -52 c-11&#xA;-29 -44 -119 -73 -200 -38 -106 -58 -148 -69 -148 -12 0 -31 49 -76 198 l-60&#xA;197 -101 3 -100 3 -59 -197 c-56 -186 -75 -225 -95 -193 -4 7 -38 98 -75 201&#xA;l-67 188 -83 0 -84 0 24 -62z"></path>
<path d="M1230 288 c-73 -139 -137 -261 -142 -270 -8 -17 -1 -18 85 -18 l93 0&#xA;22 45 22 45 180 0 180 0 22 -45 22 -45 94 0 94 0 -25 42 c-13 24 -77 145 -142&#xA;271 l-117 227 -128 0 -127 0 -133 -252z m328 22 l53 -100 -120 0 -121 0 50&#xA;100 c35 69 56 100 68 100 11 0 34 -32 70 -100z"></path>
<path d="M1830 470 l0 -70 120 0 120 0 0 -200 0 -200 85 0 85 0 0 200 0 200&#xA;120 0 120 0 0 70 0 70 -325 0 -325 0 0 -70z"></path>
<path d="M3310 270 l0 -270 85 0 85 0 0 100 0 100 185 0 185 0 0 -100 0 -100&#xA;85 0 85 0 0 270 0 270 -85 0 -85 0 0 -95 0 -95 -185 0 -185 0 0 95 0 95 -85 0&#xA;-85 0 0 -270z"></path>
</g>
  </svg>
</svg>